<?xml version="1.0" encoding="utf-8"?>
<!-- Generator: Adobe Illustrator 15.0.0, SVG Export Plug-In . SVG Version: 6.00 Build 0)  -->
<!DOCTYPE svg PUBLIC "-//W3C//DTD SVG 1.1//EN" "http://www.w3.org/Graphics/SVG/1.1/DTD/svg11.dtd">
<svg version="1.1" id="Capa_1" xmlns="http://www.w3.org/2000/svg" xmlns:xlink="http://www.w3.org/1999/xlink" x="0px" y="0px"
	 width="100px" height="40px" viewBox="175.445 198.64 491 198" enable-background="new 175.445 198.64 491 198"
	 xml:space="preserve">
<g>
	<g id="oO4N6D.tif">

			<image overflow="visible" enable-background="new    " width="2425" height="1019" id="Capa_1_1_" transform="matrix(0.1867 0 0 0.1864 194.5051 202.6746)">
		</image>
	</g>
	<path fill="#009DDD" d="M632.363,202.64h-40.459h-82.207H332.19h-82.208h-40.459c-9.423,26.578-14.976,59.401-14.976,95
		c0,35.599,5.553,68.422,14.976,95h40.459h82.208h177.507h82.208h40.46c9.419-26.578,14.972-59.4,14.972-95
		S641.782,229.218,632.363,202.64z"/>
	<g>
		<path fill="#FFFFFF" d="M280.82,334.035v-2.577c-2.777,0-4.165-2.181-4.165-4.964c0-1.288,0.199-3.763,0.796-5.751l3.169-10.111
			h27.077l4.064,10.708c0.792,2.283,1.388,4.264,1.388,5.854c0,2.673-1.388,4.265-3.771,4.265v2.577
			c3.97,0,7.737-0.493,11.702-0.493c3.87,0,7.736,0.493,11.603,0.493v-2.577c-4.165-0.501-5.156-4.265-9.22-14.479l-25.29-64.854
			h-1.388l-24.593,62.078c-2.18,5.553-6.543,16.363-11.204,17.255v2.577c3.372,0,6.546-0.493,9.915-0.493
			C274.276,333.543,277.45,334.035,280.82,334.035z M294.009,274.734l11.603,30.344h-22.808L294.009,274.734z"/>
		<path fill="#FFFFFF" d="M354.5,335.221c3.965,0,6.149-0.589,8.035-1.783l6.643-5.847c1.886,3.469,5.055,6.341,8.727,7.63
			c2.18-2.777,6.444-5.848,10.513-8.528l-1.686-1.686c-0.795,0.5-1.587,0.897-3.273,0.897c-2.677,0-3.572-2.282-3.572-6.452v-28.753
			c0-16.663,0.497-29.554,0.497-38.574h-2.279c-2.876,3.27-9.817,6.443-15.472,7.931v2.283c2.975,0.493,5.851,2.081,5.851,8.528
			v17.056c-3.966-1.886-7.833-2.876-11.798-2.876c-14.777,0-25.588,9.22-25.588,25.29
			C331.195,324.314,340.419,335.221,354.5,335.221z M356.485,289.709c9.12,0,12.294,4.559,12.294,15.569v18.94
			c-2.976,2.872-5.95,4.064-9.319,4.064c-10.016,0-15.767-11.304-15.767-20.921C343.693,299.526,347.36,289.709,356.485,289.709z"/>
		<path fill="#FFFFFF" d="M415.089,335.221c4.86,0,8.627-0.893,10.91-1.783l6.245-9.124l-1.193-1.384
			c-3.469,2.577-7.828,3.668-12.096,3.668c-11.896,0-20.03-10.414-19.235-21.813h33.519c-0.104-12.201-9.323-19.737-21.224-19.737
			c-15.667,0-23.502,14.177-23.502,24.987C388.512,321.045,396.348,335.221,415.089,335.221z M410.13,289.012
			c7.537,0,10.711,4.364,10.711,11.205h-20.727C399.82,294.367,403.885,289.012,410.13,289.012z"/>
		<path fill="#FFFFFF" d="M461.894,323.424c0,4.462-3.764,7.143-8.029,7.143c-5.161,0-9.719-3.969-10.809-9.427h-4.265l0.692,10.717
			c3.469,2.179,9.324,3.365,13.389,3.365c9.912,0,18.345-4.46,18.345-15.466c0-15.768-22.911-11.701-22.911-22.712
			c0-4.758,3.373-7.239,7.939-7.239c6.245,0,9.419,2.876,10.708,8.727h3.667l0.5-10.409c-4.858-1.488-9.721-2.976-14.677-2.976
			c-9.427,0-18.248,4.658-18.248,15.27C438.099,316.78,461.894,314.99,461.894,323.424z"/>
		<path fill="#FFFFFF" d="M480.539,269.28c0.296,4.364,0.892,12.991,0.892,19.732v37.386c0,2.577-0.892,4.662-4.559,5.154v2.283
			c3.365,0,6.539-0.294,9.912-0.294c3.469,0,6.944,0.294,10.414,0.294v-2.283c-3.572-0.596-4.464-2.672-4.464-6.545v-44.722
			c0-10.612,0.295-21.916,0.493-28.16h-2.379c-2.976,3.27-12.1,6.443-16.164,7.04v2.677
			C478.359,261.843,480.341,264.619,480.539,269.28z"/>
		<path fill="#FFFFFF" d="M515.049,335.221c5.06,0,8.728-2.777,12.688-5.648c1.392,2.871,4.86,5.06,9.228,5.648l8.624-6.938
			l-1.688-1.686c-0.787,0.199-1.781,0.493-2.378,0.493c-2.578,0-3.469-1.488-3.469-6.842v-4.065
			c0.096-6.546,0.493-12.592,0.493-16.762c0-11.499-8.727-14.275-19.036-14.275c-5.458,0-10.016,0.692-14.877,2.081v11.009h2.777
			c2.872-4.264,5.751-6.15,11.399-6.15c7.836,0,8.336,6.944,8.336,13.191c-1.59,0-3.571-0.303-5.457-0.303
			c-10.509,0-22.115,4.765-22.115,16.96C499.481,330.368,507.213,335.221,515.049,335.221z M521.493,308.746
			c2.084,0,4.264,0.303,5.553,0.596l0.398,16.96c-1.886,1.187-4.169,1.981-7.732,1.981c-4.86,0-9.03-4.064-9.03-9.322
			C510.682,311.522,516.236,308.746,521.493,308.746z"/>
		<path fill="#FFFFFF" d="M571.769,323.424c0,4.462-3.771,7.143-8.034,7.143c-5.155,0-9.713-3.969-10.804-9.427h-4.264l0.692,10.717
			c3.469,2.179,9.323,3.365,13.389,3.365c9.911,0,18.345-4.46,18.345-15.466c0-15.768-22.91-11.701-22.91-22.712
			c0-4.758,3.373-7.239,7.938-7.239c6.246,0,9.42,2.876,10.709,8.727h3.667l0.493-10.409c-4.853-1.488-9.713-2.976-14.678-2.976
			c-9.418,0-18.24,4.658-18.24,15.27C548.072,316.78,571.769,314.99,571.769,323.424z"/>
	</g>
</g>
</svg>
